<?xml version="1.0" encoding="UTF-8" standalone="no"?>
<!-- Generator: Adobe Illustrator 14.0.0, SVG Export Plug-In . SVG Version: 6.00 Build 43363)  -->

<svg
   xmlns:dc="http://purl.org/dc/elements/1.1/"
   xmlns:cc="http://creativecommons.org/ns#"
   xmlns:rdf="http://www.w3.org/1999/02/22-rdf-syntax-ns#"
   xmlns:svg="http://www.w3.org/2000/svg"
   xmlns="http://www.w3.org/2000/svg"
   xmlns:sodipodi="http://sodipodi.sourceforge.net/DTD/sodipodi-0.dtd"
   xmlns:inkscape="http://www.inkscape.org/namespaces/inkscape"
   version="1.1"
   id="Layer_1"
   x="0px"
   y="0px"
   width="54px"
   height="36px"
   viewBox="0 0 54 36"
   enable-background="new 0 0 54 36"
   xml:space="preserve"
   inkscape:version="0.91 r13725"
   sodipodi:docname="getDatetime.svg"><metadata
     id="metadata35"><rdf:RDF><cc:Work
         rdf:about=""><dc:format>image/svg+xml</dc:format><dc:type
           rdf:resource="http://purl.org/dc/dcmitype/StillImage" /><dc:title /></cc:Work></rdf:RDF></metadata><defs
     id="defs33" /><sodipodi:namedview
     pagecolor="#ffffff"
     bordercolor="#666666"
     borderopacity="1"
     objecttolerance="10"
     gridtolerance="10"
     guidetolerance="10"
     inkscape:pageopacity="0"
     inkscape:pageshadow="2"
     inkscape:window-width="1920"
     inkscape:window-height="1051"
     id="namedview31"
     showgrid="false"
     inkscape:zoom="5.6568543"
     inkscape:cx="-22.286786"
     inkscape:cy="109.90354"
     inkscape:window-x="1920"
     inkscape:window-y="8"
     inkscape:window-maximized="1"
     inkscape:current-layer="Layer_1" /><path
     d="m 47.744,3.931 -41.591,0 c -1.799,0 -3.256,1.457 -3.256,3.256 l 0,22.776 c 0,1.797 1.457,3.256 3.256,3.256 l 41.591,0 C 49.543,33.219 51,31.76 51,29.963 L 51,7.187 C 51,5.388 49.543,3.931 47.744,3.931 Z m 1.026,25.04 c 0,1.15 -0.934,2.084 -2.082,2.084 l -39.647,0 c -1.151,0 -2.083,-0.934 -2.083,-2.084 l 0,-8.184 c 0,-1.15 0.932,-2.082 2.083,-2.082 l 26.80813,0 c 4.325061,0 4.584822,0 7.693,0 l 5.14587,0 c 1.148,0 2.082,0.931 2.082,2.082 z"
     id="path27"
     inkscape:export-filename="/home/kgillespie/atmosphere_projects/element_libraries/ds1307_element_library/element_code/startClock.png"
     inkscape:export-xdpi="187.44879"
     inkscape:export-ydpi="187.44879"
     inkscape:connector-curvature="0"
     style="fill:#009344"
     sodipodi:nodetypes="sssssssssssssssccsss" /><path
     d="m 90.351805,17.441586 -18.611,5.989 c -0.379,1.007 -1.193,1.845 -2.312,2.219 -1.909,0.612 -4,-0.436 -4.613,-2.347 -0.591,-1.937 0.439,-4 2.365,-4.642 1.131,-0.327 2.293,-0.145 3.19,0.5 l 18.61,-5.99 c 1.164,-0.389 2.459,0.278 2.814,1.426 0.37,1.196 -0.279,2.457 -1.445,2.845 l 0.002,0 z m -3.256,-2.01 -17.818,5.752 c -0.387,-0.389 -0.948,-0.551 -1.467,-0.36 -0.763,0.254 -1.176,1.037 -0.92,1.797 0.224,0.742 1.037,1.177 1.798,0.923 0.535,-0.146 0.896,-0.63 0.974,-1.116 l 17.817,-5.751 c 0.341,-0.091 0.551,-0.456 0.432,-0.813 -0.092,-0.339 -0.476,-0.521 -0.816,-0.432 l 0,0 z"
     id="path29"
     inkscape:connector-curvature="0"
     style="fill:#ffffff" /><text
     xml:space="preserve"
     style="font-style:normal;font-variant:normal;font-weight:bold;font-stretch:normal;font-size:7.76026201px;line-height:125%;font-family:Futura-CondensedMedium;-inkscape-font-specification:'Futura-CondensedMedium Bold';letter-spacing:0px;word-spacing:0px;fill:#009344;fill-opacity:1;stroke:none"
     x="6.1981211"
     y="26.530727"
     id="text3145"
     sodipodi:linespacing="125%"
     transform="scale(0.91757135,1.0898335)"
     inkscape:export-filename="/home/kgillespie/atmosphere_projects/element_libraries/ds1307_element_library/element_code/startClock.png"
     inkscape:export-xdpi="187.44879"
     inkscape:export-ydpi="187.44879"><tspan
       sodipodi:role="line"
       x="6.1981211"
       y="26.530727"
       id="tspan3149">START CLOCK</tspan></text>
<circle
     style="fill:#009344;fill-opacity:1;fill-rule:evenodd;stroke:none;stroke-width:1px;stroke-linecap:butt;stroke-linejoin:miter;stroke-opacity:1"
     id="path3391"
     cx="38.40971"
     cy="13.293086"
     r="8.3597603"
     inkscape:export-filename="/home/kgillespie/atmosphere_projects/element_libraries/ds1307_element_library/element_code/startClock.png"
     inkscape:export-xdpi="187.44879"
     inkscape:export-ydpi="187.44879" /><circle
     r="6.8346691"
     cy="13.293086"
     cx="38.40971"
     id="circle4193"
     style="fill:#ffffff;fill-opacity:1;fill-rule:evenodd;stroke:none;stroke-width:1px;stroke-linecap:butt;stroke-linejoin:miter;stroke-opacity:1"
     inkscape:export-filename="/home/kgillespie/atmosphere_projects/element_libraries/ds1307_element_library/element_code/startClock.png"
     inkscape:export-xdpi="187.44879"
     inkscape:export-ydpi="187.44879" /><path
     style="fill:#009344;fill-opacity:1"
     d="m 42.245282,7.9069312 c -0.157399,0.016152 -0.309463,0.091032 -0.414728,0.2225367 l -3.400429,4.1523331 c -0.03816,-0.0019 -0.07519,0.0058 -0.112954,0.0084 -0.26196,0.01849 -0.510849,0.137582 -0.69627,0.350664 -0.348552,0.434842 -0.279719,1.064185 0.144986,1.422886 0.01573,0.01291 0.03598,0.01521 0.05226,0.02697 0.07924,0.05792 0.163694,0.100929 0.251197,0.133185 0.02685,0.0093 0.05185,0.02171 0.07924,0.02866 0.160577,0.04447 0.327652,0.05144 0.487221,0.01686 l 1.948883,1.589789 0,-0.0017 c 0.2631,0.211111 0.649215,0.17407 0.869916,-0.08935 0.211881,-0.252815 0.173658,-0.650957 -0.08935,-0.861487 l -1.948883,-1.589789 c 0.0045,-0.0894 -0.0068,-0.176899 -0.02697,-0.262998 l 3.393686,-4.1439045 -0.0017,0 C 42.99254,8.6469469 42.955465,8.2591314 42.692042,8.0384302 42.565635,7.9324891 42.402682,7.8907783 42.245282,7.9069312 Z m -0.389439,0.9626401 c 0.04602,-0.00464 0.09229,0.00822 0.128127,0.040461 0.0806,0.064609 0.08702,0.1794412 0.02192,0.2511968 L 39.170229,12.63078 c -0.03587,-0.04227 -0.06986,-0.08557 -0.112955,-0.12307 -0.05364,-0.04299 -0.116652,-0.06065 -0.175331,-0.09104 l 2.85083,-3.484723 c 0.03258,-0.035576 0.07705,-0.057738 0.12307,-0.062378 z m -3.44932,3.8859647 a 0.5292926,0.5292926 0 0 1 0.529368,0.529367 0.5292926,0.5292926 0 0 1 -0.529368,0.529368 0.5292926,0.5292926 0 0 1 -0.529368,-0.529368 0.5292926,0.5292926 0 0 1 0.529368,-0.529367 z m 0.869917,1.008158 1.286329,1.045249 c 0.07115,0.06515 0.08641,0.179518 0.02192,0.251196 -0.06461,0.0806 -0.179442,0.08702 -0.251197,0.02192 L 39.040415,14.03175 c 0.04611,-0.0389 0.100481,-0.06488 0.139929,-0.112954 0.03908,-0.04882 0.06732,-0.102315 0.0961,-0.155102 z"
     id="path3155"
     inkscape:connector-curvature="0"
     inkscape:export-filename="/home/kgillespie/atmosphere_projects/element_libraries/ds1307_element_library/element_code/startClock.png"
     inkscape:export-xdpi="187.44879"
     inkscape:export-ydpi="187.44879" /><path
     sodipodi:nodetypes="sssssssssssssssccsss"
     style="fill:#009344"
     inkscape:connector-curvature="0"
     inkscape:export-ydpi="187.44879"
     inkscape:export-xdpi="187.44879"
     inkscape:export-filename="/home/kgillespie/atmosphere_projects/element_libraries/ds1307_element_library/element_code/stopClock.png"
     id="path4224"
     d="m 47.744,-30.717232 -41.591,0 c -1.799,0 -3.256,1.457 -3.256,3.256 l 0,22.7759998 c 0,1.797 1.457,3.256 3.256,3.256 l 41.591,0 c 1.799,0 3.256,-1.459 3.256,-3.256 l 0,-22.7759998 c 0,-1.799 -1.457,-3.256 -3.256,-3.256 z m 1.026,25.0399998 c 0,1.15 -0.934,2.084 -2.082,2.084 l -39.647,0 c -1.151,0 -2.083,-0.934 -2.083,-2.084 l 0,-8.1839998 c 0,-1.15 0.932,-2.082 2.083,-2.082 l 26.80813,0 c 4.325061,0 4.584822,0 7.693,0 l 5.14587,0 c 1.148,0 2.082,0.931 2.082,2.082 z" /><text
     transform="scale(0.91757135,1.0898335)"
     sodipodi:linespacing="125%"
     id="text4226"
     y="-5.261498"
     x="6.1981211"
     style="font-style:normal;font-variant:normal;font-weight:bold;font-stretch:normal;font-size:7.76026201px;line-height:125%;font-family:Futura-CondensedMedium;-inkscape-font-specification:'Futura-CondensedMedium Bold';letter-spacing:0px;word-spacing:0px;fill:#009344;fill-opacity:1;stroke:none"
     xml:space="preserve"
     inkscape:export-filename="/home/kgillespie/atmosphere_projects/element_libraries/ds1307_element_library/element_code/stopClock.png"
     inkscape:export-xdpi="187.44879"
     inkscape:export-ydpi="187.44879"><tspan
       id="tspan4228"
       y="-5.261498"
       x="6.1981211"
       sodipodi:role="line">STOP CLOCK</tspan></text>
<circle
     r="8.3597603"
     cy="-21.355146"
     cx="38.40971"
     id="circle4230"
     style="fill:#009344;fill-opacity:1;fill-rule:evenodd;stroke:none;stroke-width:1px;stroke-linecap:butt;stroke-linejoin:miter;stroke-opacity:1"
     inkscape:export-filename="/home/kgillespie/atmosphere_projects/element_libraries/ds1307_element_library/element_code/stopClock.png"
     inkscape:export-xdpi="187.44879"
     inkscape:export-ydpi="187.44879" /><circle
     style="fill:#ffffff;fill-opacity:1;fill-rule:evenodd;stroke:none;stroke-width:1px;stroke-linecap:butt;stroke-linejoin:miter;stroke-opacity:1"
     id="circle4232"
     cx="38.40971"
     cy="-21.355146"
     r="6.8346691"
     inkscape:export-filename="/home/kgillespie/atmosphere_projects/element_libraries/ds1307_element_library/element_code/stopClock.png"
     inkscape:export-xdpi="187.44879"
     inkscape:export-ydpi="187.44879" /><path
     inkscape:connector-curvature="0"
     id="path4234"
     d="m 42.245282,-26.741301 c -0.157399,0.01615 -0.309463,0.09103 -0.414728,0.222537 l -3.400429,4.152333 c -0.03816,-0.0019 -0.07519,0.0058 -0.112954,0.0084 -0.26196,0.01849 -0.510849,0.137582 -0.69627,0.350664 -0.348552,0.434842 -0.279719,1.064185 0.144986,1.422886 0.01573,0.01291 0.03598,0.01521 0.05226,0.02697 0.07924,0.05792 0.163694,0.100929 0.251197,0.133185 0.02685,0.0093 0.05185,0.02171 0.07924,0.02866 0.160577,0.04447 0.327652,0.05144 0.487221,0.01686 l 1.948883,1.589789 0,-0.0017 c 0.2631,0.211111 0.649215,0.17407 0.869916,-0.08935 0.211881,-0.252815 0.173658,-0.650957 -0.08935,-0.861487 l -1.948883,-1.589789 c 0.0045,-0.0894 -0.0068,-0.176899 -0.02697,-0.262998 l 3.393686,-4.143905 -0.0017,0 c 0.211153,-0.263039 0.174078,-0.650855 -0.08935,-0.871556 -0.126407,-0.105941 -0.28936,-0.147652 -0.44676,-0.131499 z m -0.389439,0.96264 c 0.04602,-0.0046 0.09229,0.0082 0.128127,0.04046 0.0806,0.06461 0.08702,0.179441 0.02192,0.251197 l -2.835661,3.469551 c -0.03587,-0.04227 -0.06986,-0.08557 -0.112955,-0.12307 -0.05364,-0.04299 -0.116652,-0.06065 -0.175331,-0.09104 l 2.85083,-3.484723 c 0.03258,-0.03558 0.07705,-0.05774 0.12307,-0.06238 z m -3.44932,3.885965 a 0.5292926,0.5292926 0 0 1 0.529368,0.529367 0.5292926,0.5292926 0 0 1 -0.529368,0.529368 0.5292926,0.5292926 0 0 1 -0.529368,-0.529368 0.5292926,0.5292926 0 0 1 0.529368,-0.529367 z m 0.869917,1.008158 1.286329,1.045249 c 0.07115,0.06515 0.08641,0.179518 0.02192,0.251196 -0.06461,0.0806 -0.179442,0.08702 -0.251197,0.02192 l -1.293077,-1.050309 c 0.04611,-0.0389 0.100481,-0.06488 0.139929,-0.112954 0.03908,-0.04882 0.06732,-0.102315 0.0961,-0.155102 z"
     style="fill:#009344;fill-opacity:1"
     inkscape:export-filename="/home/kgillespie/atmosphere_projects/element_libraries/ds1307_element_library/element_code/stopClock.png"
     inkscape:export-xdpi="187.44879"
     inkscape:export-ydpi="187.44879" /><path
     d="m 47.744,-66.602901 -41.591,0 c -1.799,0 -3.256,1.457 -3.256,3.256 l 0,22.776 c 0,1.797 1.457,3.256 3.256,3.256 l 41.591,0 c 1.799,0 3.256,-1.459 3.256,-3.256 l 0,-22.776 c 0,-1.799 -1.457,-3.256 -3.256,-3.256 z m 1.026,25.04 c 0,1.15 -0.934,2.084 -2.082,2.084 l -39.647,0 c -1.151,0 -2.083,-0.934 -2.083,-2.084 l 0,-8.184 c 0,-1.15 0.932,-2.082 2.083,-2.082 l 26.80813,0 c 4.325061,0 4.584822,0 7.693,0 l 5.14587,0 c 1.148,0 2.082,0.931 2.082,2.082 z"
     id="path4236"
     inkscape:export-filename="/home/kgillespie/atmosphere_projects/element_libraries/ds1307_element_library/element_code/getDatetime.png"
     inkscape:export-xdpi="187.44879"
     inkscape:export-ydpi="187.44879"
     inkscape:connector-curvature="0"
     style="fill:#009344"
     sodipodi:nodetypes="sssssssssssssssccsss" /><text
     xml:space="preserve"
     style="font-style:normal;font-variant:normal;font-weight:bold;font-stretch:normal;font-size:7.76026201px;line-height:125%;font-family:Futura-CondensedMedium;-inkscape-font-specification:'Futura-CondensedMedium Bold';letter-spacing:0px;word-spacing:0px;fill:#009344;fill-opacity:1;stroke:none"
     x="6.1981211"
     y="-38.189159"
     id="text4238"
     sodipodi:linespacing="125%"
     transform="scale(0.91757135,1.0898335)"
     inkscape:export-filename="/home/kgillespie/atmosphere_projects/element_libraries/ds1307_element_library/element_code/getDatetime.png"
     inkscape:export-xdpi="187.44879"
     inkscape:export-ydpi="187.44879"><tspan
       sodipodi:role="line"
       x="6.1981211"
       y="-38.189159"
       id="tspan4240">GET DATETIME</tspan></text>
<circle
     style="fill:#009344;fill-opacity:1;fill-rule:evenodd;stroke:none;stroke-width:1px;stroke-linecap:butt;stroke-linejoin:miter;stroke-opacity:1"
     id="circle4242"
     cx="38.40971"
     cy="-57.240814"
     r="8.3597603"
     inkscape:export-filename="/home/kgillespie/atmosphere_projects/element_libraries/ds1307_element_library/element_code/getDatetime.png"
     inkscape:export-xdpi="187.44879"
     inkscape:export-ydpi="187.44879" /><circle
     r="6.8346691"
     cy="-57.240814"
     cx="38.40971"
     id="circle4244"
     style="fill:#ffffff;fill-opacity:1;fill-rule:evenodd;stroke:none;stroke-width:1px;stroke-linecap:butt;stroke-linejoin:miter;stroke-opacity:1"
     inkscape:export-filename="/home/kgillespie/atmosphere_projects/element_libraries/ds1307_element_library/element_code/getDatetime.png"
     inkscape:export-xdpi="187.44879"
     inkscape:export-ydpi="187.44879" /><path
     style="fill:#009344;fill-opacity:1"
     d="m 42.245282,-62.62697 c -0.157399,0.01615 -0.309463,0.09103 -0.414728,0.222537 l -3.400429,4.152333 c -0.03816,-0.0019 -0.07519,0.0058 -0.112954,0.0084 -0.26196,0.01849 -0.510849,0.137582 -0.69627,0.350664 -0.348552,0.434842 -0.279719,1.064185 0.144986,1.422886 0.01573,0.01291 0.03598,0.01521 0.05226,0.02697 0.07924,0.05792 0.163694,0.100929 0.251197,0.133185 0.02685,0.0093 0.05185,0.02171 0.07924,0.02866 0.160577,0.04447 0.327652,0.05144 0.487221,0.01686 l 1.948883,1.589789 0,-0.0017 c 0.2631,0.211111 0.649215,0.17407 0.869916,-0.08935 0.211881,-0.252815 0.173658,-0.650957 -0.08935,-0.861487 l -1.948883,-1.589789 c 0.0045,-0.0894 -0.0068,-0.176899 -0.02697,-0.262998 l 3.393686,-4.143905 -0.0017,0 c 0.211153,-0.263039 0.174078,-0.650855 -0.08935,-0.871556 -0.126407,-0.105941 -0.28936,-0.147652 -0.44676,-0.131499 z m -0.389439,0.96264 c 0.04602,-0.0046 0.09229,0.0082 0.128127,0.04046 0.0806,0.06461 0.08702,0.179441 0.02192,0.251197 l -2.835661,3.469551 c -0.03587,-0.04227 -0.06986,-0.08557 -0.112955,-0.12307 -0.05364,-0.04299 -0.116652,-0.06065 -0.175331,-0.09104 l 2.85083,-3.484723 c 0.03258,-0.03558 0.07705,-0.05774 0.12307,-0.06238 z m -3.44932,3.885965 a 0.5292926,0.5292926 0 0 1 0.529368,0.529367 0.5292926,0.5292926 0 0 1 -0.529368,0.529368 0.5292926,0.5292926 0 0 1 -0.529368,-0.529368 0.5292926,0.5292926 0 0 1 0.529368,-0.529367 z m 0.869917,1.008158 1.286329,1.045249 c 0.07115,0.06515 0.08641,0.179518 0.02192,0.251196 -0.06461,0.0806 -0.179442,0.08702 -0.251197,0.02192 l -1.293077,-1.050309 c 0.04611,-0.0389 0.100481,-0.06488 0.139929,-0.112954 0.03908,-0.04882 0.06732,-0.102315 0.0961,-0.155102 z"
     id="path4246"
     inkscape:connector-curvature="0"
     inkscape:export-filename="/home/kgillespie/atmosphere_projects/element_libraries/ds1307_element_library/element_code/getDatetime.png"
     inkscape:export-xdpi="187.44879"
     inkscape:export-ydpi="187.44879" /><path
     sodipodi:nodetypes="sssssssssssssssccsss"
     style="fill:#009344"
     inkscape:connector-curvature="0"
     inkscape:export-ydpi="187.44879"
     inkscape:export-xdpi="187.44879"
     inkscape:export-filename="/home/kgillespie/atmosphere_projects/element_libraries/ds1307_element_library/element_code/resetClock.png"
     id="path4248"
     d="m 47.744,-97.715599 -41.591,0 c -1.799,0 -3.256,1.457 -3.256,3.256 l 0,22.776 c 0,1.797 1.457,3.256 3.256,3.256 l 41.591,0 c 1.799,0 3.256,-1.459 3.256,-3.256 l 0,-22.776 c 0,-1.799 -1.457,-3.256 -3.256,-3.256 z m 1.026,25.04 c 0,1.15 -0.934,2.084 -2.082,2.084 l -39.647,0 c -1.151,0 -2.083,-0.934 -2.083,-2.084 l 0,-8.184 c 0,-1.15 0.932,-2.082 2.083,-2.082 l 26.80813,0 c 4.325061,0 4.584822,0 7.693,0 l 5.14587,0 c 1.148,0 2.082,0.931 2.082,2.082 z" /><text
     transform="scale(0.91757135,1.0898335)"
     sodipodi:linespacing="125%"
     id="text4250"
     y="-66.737282"
     x="6.1981211"
     style="font-style:normal;font-variant:normal;font-weight:bold;font-stretch:normal;font-size:7.76026201px;line-height:125%;font-family:Futura-CondensedMedium;-inkscape-font-specification:'Futura-CondensedMedium Bold';letter-spacing:0px;word-spacing:0px;fill:#009344;fill-opacity:1;stroke:none"
     xml:space="preserve"
     inkscape:export-filename="/home/kgillespie/atmosphere_projects/element_libraries/ds1307_element_library/element_code/resetClock.png"
     inkscape:export-xdpi="187.44879"
     inkscape:export-ydpi="187.44879"><tspan
       id="tspan4252"
       y="-66.737282"
       x="6.1981211"
       sodipodi:role="line">RESET CLOCK</tspan></text>
<circle
     r="8.3597603"
     cy="-88.353516"
     cx="38.40971"
     id="circle4254"
     style="fill:#009344;fill-opacity:1;fill-rule:evenodd;stroke:none;stroke-width:1px;stroke-linecap:butt;stroke-linejoin:miter;stroke-opacity:1"
     inkscape:export-filename="/home/kgillespie/atmosphere_projects/element_libraries/ds1307_element_library/element_code/resetClock.png"
     inkscape:export-xdpi="187.44879"
     inkscape:export-ydpi="187.44879" /><circle
     style="fill:#ffffff;fill-opacity:1;fill-rule:evenodd;stroke:none;stroke-width:1px;stroke-linecap:butt;stroke-linejoin:miter;stroke-opacity:1"
     id="circle4256"
     cx="38.40971"
     cy="-88.353516"
     r="6.8346691"
     inkscape:export-filename="/home/kgillespie/atmosphere_projects/element_libraries/ds1307_element_library/element_code/resetClock.png"
     inkscape:export-xdpi="187.44879"
     inkscape:export-ydpi="187.44879" /><path
     inkscape:connector-curvature="0"
     id="path4258"
     d="m 42.245282,-93.739668 c -0.157399,0.01615 -0.309463,0.09103 -0.414728,0.222537 l -3.400429,4.152333 c -0.03816,-0.0019 -0.07519,0.0058 -0.112954,0.0084 -0.26196,0.01849 -0.510849,0.137582 -0.69627,0.350664 -0.348552,0.434842 -0.279719,1.064185 0.144986,1.422886 0.01573,0.01291 0.03598,0.01521 0.05226,0.02697 0.07924,0.05792 0.163694,0.100929 0.251197,0.133185 0.02685,0.0093 0.05185,0.02171 0.07924,0.02866 0.160577,0.04447 0.327652,0.05144 0.487221,0.01686 l 1.948883,1.589789 0,-0.0017 c 0.2631,0.211111 0.649215,0.17407 0.869916,-0.08935 0.211881,-0.252815 0.173658,-0.650957 -0.08935,-0.861487 l -1.948883,-1.589789 c 0.0045,-0.0894 -0.0068,-0.176899 -0.02697,-0.262998 l 3.393686,-4.143905 -0.0017,0 c 0.211153,-0.263039 0.174078,-0.650855 -0.08935,-0.871556 -0.126407,-0.105941 -0.28936,-0.147652 -0.44676,-0.131499 z m -0.389439,0.96264 c 0.04602,-0.0046 0.09229,0.0082 0.128127,0.04046 0.0806,0.06461 0.08702,0.179441 0.02192,0.251197 l -2.835661,3.469551 c -0.03587,-0.04227 -0.06986,-0.08557 -0.112955,-0.12307 -0.05364,-0.04299 -0.116652,-0.06065 -0.175331,-0.09104 l 2.85083,-3.484723 c 0.03258,-0.03558 0.07705,-0.05774 0.12307,-0.06238 z m -3.44932,3.885965 a 0.5292926,0.5292926 0 0 1 0.529368,0.529367 0.5292926,0.5292926 0 0 1 -0.529368,0.529368 0.5292926,0.5292926 0 0 1 -0.529368,-0.529368 0.5292926,0.5292926 0 0 1 0.529368,-0.529367 z m 0.869917,1.008158 1.286329,1.045249 c 0.07115,0.06515 0.08641,0.179518 0.02192,0.251196 -0.06461,0.0806 -0.179442,0.08702 -0.251197,0.02192 l -1.293077,-1.050309 c 0.04611,-0.0389 0.100481,-0.06488 0.139929,-0.112954 0.03908,-0.04882 0.06732,-0.102315 0.0961,-0.155102 z"
     style="fill:#009344;fill-opacity:1"
     inkscape:export-filename="/home/kgillespie/atmosphere_projects/element_libraries/ds1307_element_library/element_code/resetClock.png"
     inkscape:export-xdpi="187.44879"
     inkscape:export-ydpi="187.44879" /><path
     sodipodi:nodetypes="sssssssssssssssccsss"
     style="fill:#009344"
     inkscape:connector-curvature="0"
     inkscape:export-ydpi="187.44879"
     inkscape:export-xdpi="187.44879"
     inkscape:export-filename="/home/kgillespie/atmosphere_projects/element_libraries/ds1307_element_library/element_code/setDatetime.png"
     id="path4157"
     d="m 47.744,-131.12639 -41.591,0 c -1.799,0 -3.256,1.457 -3.256,3.256 l 0,22.776 c 0,1.797 1.457,3.256 3.256,3.256 l 41.591,0 c 1.799,0 3.256,-1.459 3.256,-3.256 l 0,-22.776 c 0,-1.799 -1.457,-3.256 -3.256,-3.256 z m 1.026,25.04 c 0,1.15 -0.934,2.084 -2.082,2.084 l -39.647,0 c -1.151,0 -2.083,-0.934 -2.083,-2.084 l 0,-8.184 c 0,-1.15 0.932,-2.082 2.083,-2.082 l 26.80813,0 c 4.325061,0 4.584822,0 7.693,0 l 5.14587,0 c 1.148,0 2.082,0.931 2.082,2.082 z" /><text
     inkscape:export-ydpi="187.44879"
     inkscape:export-xdpi="187.44879"
     inkscape:export-filename="/home/kgillespie/atmosphere_projects/element_libraries/ds1307_element_library/element_code/setDatetime.png"
     transform="scale(0.91757135,1.0898335)"
     sodipodi:linespacing="125%"
     id="text4159"
     y="-97.394066"
     x="6.1981211"
     style="font-style:normal;font-variant:normal;font-weight:bold;font-stretch:normal;font-size:7.76026201px;line-height:125%;font-family:Futura-CondensedMedium;-inkscape-font-specification:'Futura-CondensedMedium Bold';letter-spacing:0px;word-spacing:0px;fill:#009344;fill-opacity:1;stroke:none"
     xml:space="preserve"><tspan
       id="tspan4161"
       y="-97.394066"
       x="6.1981211"
       sodipodi:role="line">SET DATETIME</tspan></text>
<circle
     inkscape:export-ydpi="187.44879"
     inkscape:export-xdpi="187.44879"
     inkscape:export-filename="/home/kgillespie/atmosphere_projects/element_libraries/ds1307_element_library/element_code/setDatetime.png"
     r="8.3597603"
     cy="-121.76431"
     cx="38.40971"
     id="circle4163"
     style="fill:#009344;fill-opacity:1;fill-rule:evenodd;stroke:none;stroke-width:1px;stroke-linecap:butt;stroke-linejoin:miter;stroke-opacity:1" /><circle
     inkscape:export-ydpi="187.44879"
     inkscape:export-xdpi="187.44879"
     inkscape:export-filename="/home/kgillespie/atmosphere_projects/element_libraries/ds1307_element_library/element_code/setDatetime.png"
     style="fill:#ffffff;fill-opacity:1;fill-rule:evenodd;stroke:none;stroke-width:1px;stroke-linecap:butt;stroke-linejoin:miter;stroke-opacity:1"
     id="circle4165"
     cx="38.40971"
     cy="-121.76431"
     r="6.8346691" /><path
     inkscape:export-ydpi="187.44879"
     inkscape:export-xdpi="187.44879"
     inkscape:export-filename="/home/kgillespie/atmosphere_projects/element_libraries/ds1307_element_library/element_code/setDatetime.png"
     inkscape:connector-curvature="0"
     id="path4167"
     d="m 42.245282,-127.15046 c -0.157399,0.0161 -0.309463,0.091 -0.414728,0.22253 l -3.400429,4.15234 c -0.03816,-0.002 -0.07519,0.006 -0.112954,0.008 -0.26196,0.0185 -0.510849,0.13758 -0.69627,0.35066 -0.348552,0.43484 -0.279719,1.06419 0.144986,1.42289 0.01573,0.0129 0.03598,0.0152 0.05226,0.027 0.07924,0.0579 0.163694,0.10093 0.251197,0.13318 0.02685,0.009 0.05185,0.0217 0.07924,0.0287 0.160577,0.0445 0.327652,0.0514 0.487221,0.0169 l 1.948883,1.58979 0,-0.002 c 0.2631,0.21111 0.649215,0.17407 0.869916,-0.0894 0.211881,-0.25281 0.173658,-0.65096 -0.08935,-0.86149 l -1.948883,-1.58979 c 0.0045,-0.0894 -0.0068,-0.17689 -0.02697,-0.26299 l 3.393686,-4.14391 -0.0017,0 c 0.211153,-0.26304 0.174078,-0.65085 -0.08935,-0.87155 -0.126407,-0.10595 -0.28936,-0.14766 -0.44676,-0.1315 z m -0.389439,0.96264 c 0.04602,-0.005 0.09229,0.008 0.128127,0.0405 0.0806,0.0646 0.08702,0.17944 0.02192,0.25119 l -2.835661,3.46955 c -0.03587,-0.0423 -0.06986,-0.0856 -0.112955,-0.12307 -0.05364,-0.043 -0.116652,-0.0606 -0.175331,-0.091 l 2.85083,-3.48472 c 0.03258,-0.0356 0.07705,-0.0577 0.12307,-0.0624 z m -3.44932,3.88596 a 0.5292926,0.5292926 0 0 1 0.529368,0.52937 0.5292926,0.5292926 0 0 1 -0.529368,0.52937 0.5292926,0.5292926 0 0 1 -0.529368,-0.52937 0.5292926,0.5292926 0 0 1 0.529368,-0.52937 z m 0.869917,1.00816 1.286329,1.04525 c 0.07115,0.0652 0.08641,0.17952 0.02192,0.25119 -0.06461,0.0806 -0.179442,0.087 -0.251197,0.0219 l -1.293077,-1.0503 c 0.04611,-0.0389 0.100481,-0.0649 0.139929,-0.11296 0.03908,-0.0488 0.06732,-0.10231 0.0961,-0.1551 z"
     style="fill:#009344;fill-opacity:1" /></svg>